<svg height="512pt" viewBox="0 0 512 512" width="512pt" xmlns="http://www.w3.org/2000/svg"><path d="m63.273438 120.015625c-8.066407.382813-14.273438 7.332031-14.273438 15.410156v124.574219c0 8.285156 6.714844 15 15 15s15-6.714844 15-15v-125c0-8.523438-7.109375-15.390625-15.726562-14.984375zm0 0" fill="#00c7ce"/><path d="m447.273438 120.015625c-8.066407.382813-14.273438 7.332031-14.273438 15.410156v124.574219c0 8.285156 6.714844 15 15 15s15-6.714844 15-15v-125c0-8.523438-7.109375-15.390625-15.726562-14.984375zm0 0" fill="#00a7ad"/><path d="m90 512c-8.285156 0-15-6.714844-15-15v-57c0-8.285156 6.714844-15 15-15s15 6.714844 15 15v57c0 8.285156-6.714844 15-15 15zm0 0" fill="#2d2d2d"/><path d="m120 512h-60c-8.285156 0-15-6.714844-15-15s6.714844-15 15-15h60c8.285156 0 15 6.714844 15 15s-6.714844 15-15 15zm0 0" fill="#00c7ce"/><path d="m497 455h-482c-8.285156 0-15-6.714844-15-15v-180c0-8.285156 6.714844-15 15-15h482c8.285156 0 15 6.714844 15 15v180c0 8.285156-6.714844 15-15 15zm0 0" fill="#ff2828"/><path d="m497 245h-241v210h241c8.285156 0 15-6.714844 15-15v-180c0-8.285156-6.714844-15-15-15zm0 0" fill="#e30000"/><path d="m448 150c-34.738281 0-63-28.261719-63-63v-72c0-8.285156 6.714844-15 15-15h96c8.285156 0 15 6.714844 15 15v72c0 34.738281-28.261719 63-63 63zm0 0" fill="#e30000"/><path d="m64 150c-34.738281 0-63-28.261719-63-63v-72c0-8.285156 6.714844-15 15-15h96c8.285156 0 15 6.714844 15 15v72c0 34.738281-28.261719 63-63 63zm0 0" fill="#ff2828"/><path d="m352 150c-34.738281 0-63-28.261719-63-63v-72c0-8.285156 6.714844-15 15-15h96c8.285156 0 15 6.714844 15 15v72c0 34.738281-28.261719 63-63 63zm0 0" fill="#f0ad00"/><path d="m160 150c-34.738281 0-63-28.261719-63-63v-72c0-8.285156 6.714844-15 15-15h96c8.285156 0 15 6.714844 15 15v72c0 34.738281-28.261719 63-63 63zm0 0" fill="#ffba00"/><path d="m256 150c-34.738281 0-63-28.261719-63-63v-72c0-8.285156 6.714844-15 15-15h96c8.285156 0 15 6.714844 15 15v72c0 34.738281-28.261719 63-63 63zm0 0" fill="#ff2828"/><path d="m304 0h-48v150c34.738281 0 63-28.261719 63-63v-72c0-8.285156-6.714844-15-15-15zm0 0" fill="#e30000"/><path d="m357 512c-52.382812 0-95-42.617188-95-95s42.617188-95 95-95 95 42.617188 95 95-42.617188 95-95 95zm0 0" fill="#3c3c3c"/><path d="m357 322v190c52.382812 0 95-42.617188 95-95s-42.617188-95-95-95zm0 0" fill="#2d2d2d"/><path d="m357 352c-35.839844 0-65 29.160156-65 65s29.160156 65 65 65 65-29.160156 65-65-29.160156-65-65-65zm0 0" fill="#00c7ce"/><path d="m357 352v130c35.839844 0 65-29.160156 65-65s-29.160156-65-65-65zm0 0" fill="#00a7ad"/><path d="m372 417c0 8.285156-6.714844 15-15 15s-15-6.714844-15-15 6.714844-15 15-15 15 6.714844 15 15zm0 0" fill="#ffba00"/><path d="m357 402v30c8.285156 0 15-6.714844 15-15s-6.714844-15-15-15zm0 0" fill="#f0ad00"/></svg>